Coordinates
version=1
nRows=11
nColumns=40
inDegrees=yes

Units are S.I. units (second, meters, Newtons, ...)
Angles are in degrees.

endheader
time	pelvis_tilt	pelvis_list	pelvis_rotation	pelvis_tx	pelvis_ty	pelvis_tz	hip_flexion_r	hip_adduction_r	hip_rotation_r	knee_angle_r	knee_angle_r_beta	ankle_angle_r	subtalar_angle_r	mtp_angle_r	hip_flexion_l	hip_adduction_l	hip_rotation_l	knee_angle_l	knee_angle_l_beta	ankle_angle_l	subtalar_angle_l	mtp_angle_l	lumbar_extension	lumbar_bending	lumbar_rotation	arm_flex_r	arm_add_r	arm_rot_r	elbow_flex_r	pro_sup_r	wrist_flex_r	wrist_dev_r	arm_flex_l	arm_add_l	arm_rot_l	elbow_flex_l	pro_sup_l	wrist_flex_l	wrist_dev_l
      0.54250000	     -4.44530266	     -5.19064136	      0.33500859	      0.99767743	      0.91140557	      0.45801589	      0.70140963	     -3.24289544	    -11.86949539	     32.62493982	     32.62493982	     13.81193384	      0.64953528	    -15.27544313	     31.33889235	     -7.08679470	     -5.67218909	     29.43122602	     29.43122602	      6.00753074	    -15.99266726	      5.95605583	     -8.98861581	      6.55473609	      3.58575114	     21.03778520	    -16.52647729	     -8.68461367	    114.94977999	     43.87402586	      0.00000000	      0.00000000	    -10.77676876	     -6.65335362	      0.40458715	     24.35494180	     45.53373470	      0.00000000	      0.00000000
      0.55400000	     -4.42123635	     -5.07997124	      0.24772400	      0.99769718	      0.91320161	      0.45457704	      2.49223939	     -4.04135248	    -11.22550016	     36.66768936	     36.66768936	     11.86731282	     -1.19416228	    -15.82820611	     30.50322297	     -6.87581013	     -6.09956323	     29.30131074	     29.30131074	      6.71598473	    -15.58356651	      5.42795040	     -9.05887937	      6.49537653	      3.38604016	     19.17185677	    -16.35897037	     -8.55928677	    113.52057997	     43.92850669	      0.00000000	      0.00000000	     -9.69878163	     -6.66165096	      0.14969534	     24.94530765	     45.60751554	      0.00000000	      0.00000000
      0.56550000	     -4.32756169	     -4.89461359	      0.16012241	      0.99752437	      0.91503699	      0.45126789	      4.36694212	     -4.94058366	    -10.68822757	     40.84801941	     40.84801941	     10.01577221	     -2.66441181	    -15.85679651	     29.53665941	     -6.59677845	     -6.60496168	     29.05947223	     29.05947223	      7.38066526	    -15.10663719	      4.99226238	     -9.26080543	      6.33230466	      3.12875972	     17.27700745	    -16.04747775	     -8.28602537	    112.20700051	     43.96029746	      0.00000000	      0.00000000	     -8.49695450	     -6.75423901	      0.03501662	     25.55501017	     45.65087146	      0.00000000	      0.00000000
      0.57700000	     -4.37112417	     -4.82224858	      0.03830351	      0.99712293	      0.91663427	      0.44832082	      6.52521746	     -5.54350481	     -9.93365452	     45.00516674	     45.00516674	      8.21170485	     -4.53488810	    -15.36433530	     28.67238269	     -6.46573263	     -7.14404026	     28.69104589	     28.69104589	      7.99054406	    -14.47919595	      4.47060435	     -9.25170295	      6.26203889	      3.01309277	     15.32944705	    -15.93491282	     -8.19818949	    110.28631197	     44.01851852	      0.00000000	      0.00000000	     -7.27490287	     -6.90131305	     -0.12698768	     26.32156252	     45.70103812	      0.00000000	      0.00000000
      0.58850000	     -4.35275583	     -4.77392528	     -0.05965055	      0.99651979	      0.91826205	      0.44560748	      8.66412573	     -6.00797015	     -9.19083697	     49.01050393	     49.01050393	      6.62926162	     -6.34848997	    -14.39592645	     27.76814513	     -6.37460847	     -7.69035706	     28.33148641	     28.33148641	      8.51852718	    -13.78091445	      3.90737365	     -9.35826773	      6.21610227	      2.89762188	     13.45016661	    -15.71387709	     -8.12454895	    108.07903981	     44.08627732	      0.00000000	      0.00000000	     -5.96292333	     -7.10563429	     -0.29610703	     27.20137359	     45.75203789	      0.00000000	      0.00000000
      0.60000000	     -4.29160978	     -4.86625723	     -0.13759253	      0.99580043	      0.91983663	      0.44323253	     10.89975118	     -6.22605645	     -8.51718642	     53.15084120	     53.15084120	      6.83111272	     -7.13474038	     -8.73622597	     26.81546989	     -6.51076630	     -8.42086619	     27.91567115	     27.91567115	      8.66405013	    -12.81435735	      2.14344990	     -9.43339889	      6.25557831	      2.10696673	     12.58009536	    -14.76189951	     -8.20698866	    103.76648010	     44.27809216	      0.00000000	      0.00000000	     -5.31504461	     -7.40902985	     -1.03790744	     29.17672060	     45.88653497	      0.00000000	      0.00000000
      0.61150000	     -4.23890707	     -4.75893488	     -0.20518285	      0.99488833	      0.92129464	      0.44080518	     13.02369818	     -6.69133356	     -8.04769391	     56.68038623	     56.68038623	      5.67186864	     -8.48367325	     -8.20553898	     25.87690719	     -6.29568807	     -8.79699169	     27.48942648	     27.48942648	      9.09892816	    -12.38951384	      1.88816411	     -9.62759725	      6.15149852	      1.98698799	     10.59182925	    -14.65855944	     -7.73412618	    102.05612169	     44.31445316	      0.00000000	      0.00000000	     -3.74313498	     -7.75381718	     -1.16525338	     29.99305057	     45.93192762	      0.00000000	      0.00000000
      0.62300000	     -4.23230694	     -4.72480023	     -0.27345868	      0.99382162	      0.92268491	      0.43860214	     15.19050146	     -6.95570185	     -7.57918487	     59.88722297	     59.88722297	      4.83818139	     -9.82856817	     -7.44373574	     24.99251084	     -6.18000199	     -9.22212066	     27.03220629	     27.03220629	      9.52591808	    -11.81560120	      1.55729095	     -9.75331098	      6.08007758	      1.95302386	      8.70972188	    -14.59751431	     -7.47852300	     99.64677550	     44.38031305	      0.00000000	      0.00000000	     -2.13653492	     -8.11516037	     -1.28867574	     30.93320066	     45.97611712	      0.00000000	      0.00000000
      0.63450000	     -4.18214502	     -4.85043073	     -0.36752729	      0.99273618	      0.92409235	      0.43668922	     17.42662746	     -7.00327389	     -7.20458276	     63.11332423	     63.11332423	      6.16468934	     -9.87504195	     -1.30249553	     24.02791645	     -6.28072546	     -9.69796582	     26.49260333	     26.49260333	      9.62273304	    -11.16519129	      0.21424687	     -9.79138406	      6.14936900	      0.99998452	      8.44068242	    -14.15637750	     -6.64920492	     94.05522942	     44.60241780	      0.00000000	      0.00000000	     -1.61967504	     -8.66732798	     -1.75688175	     33.34406356	     46.05999834	      0.00000000	      0.00000000
      0.64600000	     -4.12334594	     -4.87699159	     -0.43777146	      0.99157278	      0.92548320	      0.43476454	     19.42864443	     -7.13150884	     -6.95455707	     65.51171948	     65.51171948	      5.75462510	    -10.84889211	     -1.11076896	     23.08816577	     -6.21061791	    -10.00444168	     26.01236484	     26.01236484	     10.03211327	    -10.68166251	     -0.07213260	     -9.95645430	      6.17019444	      1.05244243	      6.77528559	    -14.04271891	     -6.65197652	     90.99375325	     44.70537840	      0.00000000	      0.00000000	      0.09502692	     -9.05036120	     -1.84058947	     34.29123112	     46.09907880	      0.00000000	      0.00000000
      0.65750000	     -4.11539830	     -4.85965286	     -0.47572617	      0.99021696	      0.92676251	      0.43288657	     21.46271435	     -7.30952613	     -6.80605679	     67.52010309	     67.52010309	      5.44315511	    -11.63711913	     -1.09892939	     22.19699151	     -6.04634774	    -10.17863278	     25.46803454	     25.46803454	     10.39204027	    -10.29143688	     -0.24013787	    -10.13294212	      6.14672858	      0.85818183	      5.06570685	    -13.84704733	     -6.39728643	     88.74325518	     44.76623798	      0.00000000	      0.00000000	      1.83279915	     -9.52951327	     -1.91643968	     35.18243378	     46.13582488	      0.00000000	      0.00000000
